# xmcd CD database file
#
# Track frame offsets:
#	150
#	23557
#	46162
#	59863
#	74608
#	78880
#	110136
#	134815
#	154532
#	165575
#	179290
#
# Disc length: 2676 seconds
#
# Revision: 0
# Processed by: cddbd v1.5.2PL0 Copyright (c) Steve Scherf et al.
# Submitted via: CDex 1.51
#
DISCID=970a720b
DTITLE=Niklas Winter - Beautopia
DYEAR=2008
DGENRE=Jazz
TTITLE0=Everything You Need Is Here (feat. Jukka Eskola)
TTITLE1=Beautopia (feat. Jukka Eskola)
TTITLE2=If You Wait Long Enough (Part1)
TTITLE3=If You Wait Long Enough (Part2)
TTITLE4=If You Wait Long Enough (Part3)
TTITLE5=Downhill
TTITLE6=Magnetic (feat. Jukka Eskola)
TTITLE7=Slowhand
TTITLE8=For Derek Bailey
TTITLE9=Kronos
TTITLE10=Inner Crystal
EXTD=YEAR: 2008
EXTT0=
EXTT1=
EXTT2=
EXTT3=
EXTT4=
EXTT5=
EXTT6=
EXTT7=
EXTT8=
EXTT9=
EXTT10=
PLAYORDER=
